# xmcd
#
# Track frame offsets:
#	177
#	19547
#	51920
#	73775
#	102702
#	120810
#	149100
#	168592
#
# Disc length: 2758 seconds
#
# Revision: 0
# Processed by: cddbd v1.4PL0 Copyright (c) Steve Scherf et al.
# Submitted via: dBpowerAMP V4.0
#
DISCID=730ac408
DTITLE=Billy Hector - And The Crown Went Wild ... again
DYEAR=1993
DGENRE=Blues
TTITLE0=Jealous Man
TTITLE1=It Takes Alot To Laugh, A Train To Cry
TTITLE2=Jelly Roll
TTITLE3=Hey Joe
TTITLE4=I'm A Roadrunner
TTITLE5=Hit The Road
TTITLE6=Fairlane Train
TTITLE7=Blues Come To Town
EXTD=
EXTT0=
EXTT1=
EXTT2=
EXTT3=
EXTT4=
EXTT5=
EXTT6=
EXTT7=
PLAYORDER=
